<svg xmlns="http://www.w3.org/2000/svg" version="1.1" xmlns:xlink="http://www.w3.org/1999/xlink" preserveAspectRatio="none" x="0px" y="0px" width="250px" height="150px" viewBox="0 0 250 150">
<defs>
<radialGradient id="Gradient_1" gradientUnits="userSpaceOnUse" cx="0" cy="0" r="84.92500000000003" fx="0" fy="0" gradientTransform="matrix( 0.9999999999999997, 0, 0, 0.8681189284662936, 77.8,103.6) " spreadMethod="pad">
<stop  offset="0%" stop-color="#FFE064"/>

<stop  offset="100%" stop-color="#FF2F66"/>
</radialGradient>

<radialGradient id="Gradient_2" gradientUnits="userSpaceOnUse" cx="0" cy="0" r="84.78750000000002" fx="0" fy="0" gradientTransform="matrix( 0.9999999999999998, 0, 0, 0.8674627745835175, 328.25,103.45) " spreadMethod="pad">
<stop  offset="0%" stop-color="#FFE064"/>

<stop  offset="100%" stop-color="#FF2F66"/>
</radialGradient>

<radialGradient id="Gradient_3" gradientUnits="userSpaceOnUse" cx="0" cy="0" r="84.64999999999998" fx="0" fy="0" gradientTransform="matrix( 1.0000000000000004, 0, 0, 0.8666568222090966, 578.7,103.3) " spreadMethod="pad">
<stop  offset="0%" stop-color="#FFE064"/>

<stop  offset="100%" stop-color="#FF2F66"/>
</radialGradient>

<radialGradient id="Gradient_4" gradientUnits="userSpaceOnUse" cx="0" cy="0" r="84.5" fx="0" fy="0" gradientTransform="matrix( 1, 0, 0, 0.8661242603550297, 829.15,103.15) " spreadMethod="pad">
<stop  offset="0%" stop-color="#FFE064"/>

<stop  offset="100%" stop-color="#FF2F66"/>
</radialGradient>

<radialGradient id="Gradient_5" gradientUnits="userSpaceOnUse" cx="0" cy="0" r="84.36249999999995" fx="0" fy="0" gradientTransform="matrix( 1.0000000000000007, 0, 0, 0.865313379759965, 1079.6,103) " spreadMethod="pad">
<stop  offset="0%" stop-color="#FFE064"/>

<stop  offset="100%" stop-color="#FF2F66"/>
</radialGradient>

<radialGradient id="Gradient_6" gradientUnits="userSpaceOnUse" cx="0" cy="0" r="84.22499999999991" fx="0" fy="0" gradientTransform="matrix( 1.000000000000001, 0, 0, 0.8646482635796983, 1330.05,102.85) " spreadMethod="pad">
<stop  offset="0%" stop-color="#FFE064"/>

<stop  offset="100%" stop-color="#FF2F66"/>
</radialGradient>

<radialGradient id="Gradient_7" gradientUnits="userSpaceOnUse" cx="0" cy="0" r="84.08750000000009" fx="0" fy="0" gradientTransform="matrix( 0.999999999999999, 0, 0, 0.8638323175263853, 1580.5,102.7) " spreadMethod="pad">
<stop  offset="0%" stop-color="#FFE064"/>

<stop  offset="100%" stop-color="#FF2F66"/>
</radialGradient>

<radialGradient id="Gradient_8" gradientUnits="userSpaceOnUse" cx="0" cy="0" r="83.95000000000005" fx="0" fy="0" gradientTransform="matrix( 0.9999999999999996, 0, 0, 0.8631625967837995, 1830.9,102.5) " spreadMethod="pad">
<stop  offset="0%" stop-color="#FFE064"/>

<stop  offset="100%" stop-color="#FF2F66"/>
</radialGradient>

<radialGradient id="Gradient_9" gradientUnits="userSpaceOnUse" cx="0" cy="0" r="83.80000000000018" fx="0" fy="0" gradientTransform="matrix( 0.9999999999999979, 0, 0, 0.8624701670644374, 2081.35,102.35) " spreadMethod="pad">
<stop  offset="0%" stop-color="#FFE064"/>

<stop  offset="100%" stop-color="#FF2F66"/>
</radialGradient>

<radialGradient id="Gradient_10" gradientUnits="userSpaceOnUse" cx="0" cy="0" r="83.66249999999991" fx="0" fy="0" gradientTransform="matrix( 1.000000000000001, 0, 0, 0.8617959061706271, 2331.8,102.2) " spreadMethod="pad">
<stop  offset="0%" stop-color="#FFE064"/>

<stop  offset="100%" stop-color="#FF2F66"/>
</radialGradient>

<radialGradient id="Gradient_11" gradientUnits="userSpaceOnUse" cx="0" cy="0" r="83.52500000000009" fx="0" fy="0" gradientTransform="matrix( 0.999999999999999, 0, 0, 0.86096976953008, 2582.25,102.05) " spreadMethod="pad">
<stop  offset="0%" stop-color="#FFE064"/>

<stop  offset="100%" stop-color="#FF2F66"/>
</radialGradient>

<radialGradient id="Gradient_12" gradientUnits="userSpaceOnUse" cx="0" cy="0" r="83.38749999999982" fx="0" fy="0" gradientTransform="matrix( 1.0000000000000022, 0, 0, 0.8602908109728695, 2832.7,101.9) " spreadMethod="pad">
<stop  offset="0%" stop-color="#FFE064"/>

<stop  offset="100%" stop-color="#FF2F66"/>
</radialGradient>

<radialGradient id="Gradient_13" gradientUnits="userSpaceOnUse" cx="0" cy="0" r="83.25" fx="0" fy="0" gradientTransform="matrix( 1.0000000000000002, 0, 0, 0.8596096096096097, 3083.15,101.75) " spreadMethod="pad">
<stop  offset="0%" stop-color="#FFE064"/>

<stop  offset="100%" stop-color="#FF2F66"/>
</radialGradient>

<radialGradient id="Gradient_14" gradientUnits="userSpaceOnUse" cx="0" cy="0" r="83.09999999999991" fx="0" fy="0" gradientTransform="matrix( 1.000000000000001, 0, 0, 0.858904933814682, 3333.6,101.6) " spreadMethod="pad">
<stop  offset="0%" stop-color="#FFE064"/>

<stop  offset="100%" stop-color="#FF2F66"/>
</radialGradient>

<radialGradient id="Gradient_15" gradientUnits="userSpaceOnUse" cx="0" cy="0" r="82.96250000000009" fx="0" fy="0" gradientTransform="matrix( 0.9999999999999989, 0, 0, 0.8582190748832295, 3584.05,101.45) " spreadMethod="pad">
<stop  offset="0%" stop-color="#FFE064"/>

<stop  offset="100%" stop-color="#FF2F66"/>
</radialGradient>

<radialGradient id="Gradient_16" gradientUnits="userSpaceOnUse" cx="0" cy="0" r="82.82499999999982" fx="0" fy="0" gradientTransform="matrix( 1.0000000000000022, 0, 0, 0.8573800181104758, 3834.5,101.3) " spreadMethod="pad">
<stop  offset="0%" stop-color="#FFE064"/>

<stop  offset="100%" stop-color="#FF2F66"/>
</radialGradient>

<radialGradient id="Gradient_17" gradientUnits="userSpaceOnUse" cx="0" cy="0" r="82.6875" fx="0" fy="0" gradientTransform="matrix( 1, 0, 0, 0.8566893424036282, 4084.95,101.15) " spreadMethod="pad">
<stop  offset="0%" stop-color="#FFE064"/>

<stop  offset="100%" stop-color="#FF2F66"/>
</radialGradient>

<radialGradient id="Gradient_18" gradientUnits="userSpaceOnUse" cx="0" cy="0" r="82.53750000000036" fx="0" fy="0" gradientTransform="matrix( 0.9999999999999957, 0, 0, 0.855974557019533, 4335.4,101) " spreadMethod="pad">
<stop  offset="0%" stop-color="#FFE064"/>

<stop  offset="100%" stop-color="#FF2F66"/>
</radialGradient>

<radialGradient id="Gradient_19" gradientUnits="userSpaceOnUse" cx="0" cy="0" r="82.39999999999964" fx="0" fy="0" gradientTransform="matrix( 1.0000000000000047, 0, 0, 0.8552791262135961, 4585.85,100.85) " spreadMethod="pad">
<stop  offset="0%" stop-color="#FFE064"/>

<stop  offset="100%" stop-color="#FF2F66"/>
</radialGradient>

<radialGradient id="Gradient_20" gradientUnits="userSpaceOnUse" cx="0" cy="0" r="82.26249999999982" fx="0" fy="0" gradientTransform="matrix( 1.0000000000000024, 0, 0, 0.8544294180215792, 4836.25,100.65) " spreadMethod="pad">
<stop  offset="0%" stop-color="#FFE064"/>

<stop  offset="100%" stop-color="#FF2F66"/>
</radialGradient>

<radialGradient id="Gradient_21" gradientUnits="userSpaceOnUse" cx="0" cy="0" r="82.125" fx="0" fy="0" gradientTransform="matrix( 1, 0, 0, 0.8537290715372908, 5086.7,100.5) " spreadMethod="pad">
<stop  offset="0%" stop-color="#FFE064"/>

<stop  offset="100%" stop-color="#FF2F66"/>
</radialGradient>

<radialGradient id="Gradient_22" gradientUnits="userSpaceOnUse" cx="0" cy="0" r="81.98750000000018" fx="0" fy="0" gradientTransform="matrix( 0.9999999999999979, 0, 0, 0.8528739137063559, 5337.15,100.35) " spreadMethod="pad">
<stop  offset="0%" stop-color="#FFE064"/>

<stop  offset="100%" stop-color="#FF2F66"/>
</radialGradient>

<radialGradient id="Gradient_23" gradientUnits="userSpaceOnUse" cx="0" cy="0" r="81.83749999999964" fx="0" fy="0" gradientTransform="matrix( 1.0000000000000044, 0, 0, 0.8522987627921224, 5587.6,100.2) " spreadMethod="pad">
<stop  offset="0%" stop-color="#FFE064"/>

<stop  offset="100%" stop-color="#FF2F66"/>
</radialGradient>

<radialGradient id="Gradient_24" gradientUnits="userSpaceOnUse" cx="0" cy="0" r="81.69999999999982" fx="0" fy="0" gradientTransform="matrix( 1.0000000000000022, 0, 0, 0.8514381884944939, 5838.05,100.05) " spreadMethod="pad">
<stop  offset="0%" stop-color="#FFE064"/>

<stop  offset="100%" stop-color="#FF2F66"/>
</radialGradient>

<g id="_______1_0_Layer0_0_FILL">
<path fill="url(#Gradient_1)" stroke="none" d="
M 223.3 27.6
Q 199 10.5 166.05 9.75 132.7 11.5 97.05 26.25 73.1 30.95 50.4 32.5 37.2 33.05 23.95 44.2 11.1 57.55 14.5 84.8 17.95 112.1 51.65 132.8 77.85 147.25 117.35 142.15 150.45 134 176.55 112.5 199.4 95.05 223.9 79.3 246.45 63.1 244.95 51.8 239.3 35.9 223.3 27.6 Z"/>

<path fill="url(#Gradient_2)" stroke="none" d="
M 473.7 28.55
Q 464.6 21.95 454.05 17.65 437.05 10.75 416.85 10.05 401.6 10.55 385.85 13.85 367.2 17.75 347.9 25.5 324.05 30.15 301.4 32.05 295.95 32.4 290.45 34.45 282.7 37.4 275.05 43.85 261.95 57.25 264.8 84.1 267.1 105.75 288.85 123.65 294.35 128.2 301 132.4 312.95 139.2 327.75 141.8 345.2 145 366.45 142.2 378.8 139.2 390.2 134.25 409.2 125.95 425.45 112.45 427.65 110.8 429.8 109.15 450.4 93.45 472.85 79.75 475.7 77.75 478.25 75.85 495.25 62.75 493.7 50.95 488.35 36.5 473.7 28.55 Z"/>

<path fill="url(#Gradient_3)" stroke="none" d="
M 724.1 29.45
Q 715.2 22.8 704.65 18.4 687.7 11.35 667.65 10.35 652.45 10.6 636.7 13.65 618.05 17.2 598.75 24.75 575.05 29.35 552.45 31.6 547 32 541.5 34.1 533.75 37.15 526.1 43.55 512.75 56.95 515.15 83.35 516.95 104.95 538.4 123.1 543.75 127.75 550.35 132 562.15 138.9 576.9 141.7 594.4 145.1 615.55 142.25 627.85 139.3 639.25 134.3 658.2 125.95 674.35 112.4 676.55 110.75 678.7 109.05 699.05 93.35 721.85 80.2 724.7 78.3 727.25 76.45 744.3 63.9 743.15 52.1 738.5 37.7 724.1 29.45 Z"/>

<path fill="url(#Gradient_4)" stroke="none" d="
M 976.25 77.05
Q 993.3 65 992.65 53.3 988.6 38.85 974.5 30.4 965.75 23.7 955.25 19.15 938.35 11.9 918.45 10.65 903.3 10.6 887.6 13.4 868.95 16.7 849.65 24.05 826 28.55 803.45 31.15 798.05 31.65 792.6 33.75 784.8 36.85 777.2 43.2 763.6 56.6 765.45 82.65 766.8 104.1 787.9 122.55 793.2 127.3 799.75 131.6 811.4 138.65 826.1 141.55 843.65 145.2 864.7 142.35 876.9 139.4 888.3 134.35 907.15 125.95 923.25 112.35 925.4 110.7 927.55 109 947.65 93.2 970.8 80.6 973.65 78.8 976.25 77.05 Z"/>

<path fill="url(#Gradient_5)" stroke="none" d="
M 1225.25 77.7
Q 1242.3 66.1 1242.1 54.5 1238.75 40 1224.9 31.3 1216.35 24.6 1205.85 19.95 1189 12.45 1169.25 10.95 1154.15 10.65 1138.5 13.15 1119.8 16.15 1100.5 23.3 1077 27.7 1054.5 30.65 1049.1 31.25 1043.65 33.4 1035.85 36.6 1028.3 42.85 1014.45 56.3 1015.8 81.95 1016.65 103.25 1037.4 122 1042.6 126.85 1049.1 131.2 1060.65 138.35 1075.25 141.4 1092.85 145.3 1113.8 142.4 1125.95 139.5 1137.35 134.4 1156.15 125.95 1172.15 112.3 1174.3 110.65 1176.45 108.95 1196.3 93.1 1219.75 81.05 1222.65 79.35 1225.25 77.7 Z"/>

<path fill="url(#Gradient_6)" stroke="none" d="
M 1474.25 78.3
Q 1491.35 67.2 1491.6 55.7 1488.85 41.2 1475.3 32.2 1466.95 25.45 1456.45 20.7 1439.65 13 1420.05 11.25 1404.95 10.65 1389.4 12.95 1370.65 15.65 1351.35 22.55 1327.95 26.9 1305.5 30.2 1300.15 30.9 1294.7 33.05 1286.9 36.3 1279.4 42.5 1265.25 56 1266.1 81.2 1266.5 102.4 1286.9 121.5 1292.05 126.4 1298.45 130.8 1309.85 138.1 1324.45 141.3 1342.05 145.35 1362.9 142.45 1375 139.6 1386.4 134.45 1405.15 125.95 1421.05 112.3 1423.2 110.6 1425.3 108.9 1444.95 93 1468.7 81.5 1471.6 79.85 1474.25 78.3 Z"/>

<path fill="url(#Gradient_7)" stroke="none" d="
M 1725.7 33.15
Q 1717.55 26.35 1707.05 21.45 1690.3 13.6 1670.9 11.55 1655.8 10.7 1640.25 12.7 1621.5 15.15 1602.25 21.8 1578.9 26.1 1556.55 29.75 1551.2 30.5 1545.8 32.7 1537.95 36.05 1530.45 42.2 1516.1 55.7 1516.45 80.5 1516.35 101.6 1536.45 120.95 1541.5 125.95 1547.8 130.4 1559.1 137.85 1573.6 141.15 1591.25 145.45 1612 142.5 1624.05 139.7 1635.45 134.5 1654.15 125.95 1670 112.25 1672.1 110.55 1674.2 108.8 1693.6 92.9 1717.7 81.95 1720.6 80.4 1723.25 78.9 1740.35 68.35 1741.1 56.9 1739 42.35 1725.7 33.15 Z"/>

<path fill="url(#Gradient_8)" stroke="none" d="
M 1976.05 34.1
Q 1968.15 27.2 1957.65 22.2 1940.9 14.15 1921.7 11.85 1906.65 10.7 1891.15 12.45 1872.35 14.6 1853.1 21.05 1829.9 25.3 1807.55 29.3 1802.25 30.15 1796.9 32.35 1789 35.75 1781.55 41.85 1766.9 55.35 1766.75 79.8 1766.15 100.75 1785.95 120.4 1790.9 125.5 1797.15 130 1808.35 137.55 1822.8 141.05 1840.45 145.55 1861.1 142.55 1873.1 139.8 1884.5 134.55 1903.15 125.9 1918.9 112.2 1921 110.5 1923.05 108.75 1942.2 92.8 1966.65 82.4 1969.55 80.9 1972.25 79.5 1989.35 69.45 1990.55 58.05 1989.1 43.5 1976.05 34.1 Z"/>

<path fill="url(#Gradient_9)" stroke="none" d="
M 2226.45 35
Q 2218.7 28.1 2208.25 22.95 2191.55 14.7 2172.5 12.15 2157.5 10.7 2142.05 12.25 2123.2 14.1 2103.95 20.35 2080.85 24.5 2058.6 28.85 2053.3 29.75 2047.95 32 2040.05 35.45 2032.65 41.5 2017.75 55.05 2017.05 79.05 2016 99.9 2035.45 119.85 2040.35 125.05 2046.5 129.6 2057.55 137.3 2071.95 140.9 2089.65 145.65 2110.2 142.6 2122.15 139.9 2133.55 134.6 2152.1 125.9 2167.8 112.15 2169.85 110.45 2171.95 108.7 2190.85 92.65 2215.6 82.8 2218.5 81.4 2221.25 80.1 2238.4 70.55 2240.05 59.25 2239.2 44.7 2226.45 35 Z"/>

<path fill="url(#Gradient_10)" stroke="none" d="
M 2464.6 83.25
Q 2467.5 81.95 2470.25 80.7 2487.4 71.7 2489.5 60.45 2489.35 45.85 2476.85 35.95 2469.3 29 2458.85 23.7 2442.2 15.3 2423.3 12.45 2408.35 10.75 2392.9 12 2374.1 13.55 2354.8 19.6 2331.8 23.7 2309.6 28.4 2304.35 29.4 2299.05 31.65 2291.1 35.2 2283.7 41.15 2268.6 54.75 2267.4 78.35 2265.85 99.05 2284.95 119.3 2289.8 124.6 2295.9 129.2 2306.8 137.05 2321.15 140.75 2338.9 145.75 2359.35 142.7 2371.2 140 2382.6 134.65 2401.1 125.9 2416.7 112.1 2418.75 110.4 2420.8 108.6 2439.5 92.55 2464.6 83.25 Z"/>

<path fill="url(#Gradient_11)" stroke="none" d="
M 2709.45 24.45
Q 2692.85 15.85 2674.1 12.75 2659.2 10.75 2643.8 11.75 2624.95 13.05 2605.7 18.85 2582.8 22.9 2560.65 27.95 2555.4 29 2550.1 31.3 2542.15 34.9 2534.8 40.8 2519.4 54.4 2517.7 77.65 2515.7 98.2 2534.45 118.75 2539.2 124.15 2545.25 128.8 2556.05 136.75 2570.3 140.65 2588.1 145.85 2608.45 142.75 2620.25 140.1 2631.65 134.7 2650.1 125.9 2665.6 112.05 2667.65 110.35 2669.7 108.55 2688.1 92.45 2713.55 83.7 2716.45 82.45 2719.25 81.3 2736.4 72.8 2739 61.65 2739.45 47 2727.25 36.85 2719.9 29.85 2709.45 24.45 Z"/>

<path fill="url(#Gradient_12)" stroke="none" d="
M 2977.65 37.75
Q 2970.5 30.75 2960.05 25.2 2943.5 16.4 2924.9 13.05 2910.05 10.8 2894.7 11.55 2875.8 12.5 2856.55 18.1 2833.75 22.1 2811.65 27.5 2806.45 28.65 2801.15 30.95 2793.2 34.65 2785.9 40.5 2770.25 54.1 2768.05 76.9 2765.55 97.4 2784 118.2 2788.65 123.7 2794.6 128.4 2805.25 136.5 2819.5 140.5 2837.3 145.95 2857.55 142.8 2869.3 140.2 2880.7 134.75 2899.1 125.9 2914.5 112 2916.55 110.3 2918.55 108.5 2936.75 92.35 2962.5 84.15 2965.45 83 2968.25 81.9 2985.45 73.9 2988.45 62.8 2989.6 48.2 2977.65 37.75 Z"/>

<path fill="url(#Gradient_13)" stroke="none" d="
M 3228.05 38.7
Q 3221.1 31.65 3210.65 26 3194.15 17 3175.7 13.35 3160.9 10.8 3145.6 11.3 3126.65 12 3107.4 17.4 3084.75 21.3 3062.7 27.05 3057.5 28.3 3052.25 30.6 3044.3 34.35 3037 40.15 3021.1 53.8 3018.35 76.2 3015.4 96.55 3033.5 117.7 3038.1 123.25 3043.95 128 3054.5 136.25 3068.7 140.4 3086.5 146.05 3106.65 142.85 3118.4 140.3 3129.75 134.8 3148.1 125.9 3163.4 112 3165.45 110.25 3167.45 108.45 3185.4 92.25 3211.5 84.6 3214.4 83.5 3217.25 82.55 3234.45 75.05 3237.95 64 3239.7 49.35 3228.05 38.7 Z"/>

<path fill="url(#Gradient_14)" stroke="none" d="
M 3478.45 39.65
Q 3471.65 32.5 3461.25 26.75 3444.8 17.55 3426.5 13.65 3411.7 10.8 3396.45 11.05 3377.5 11.5 3358.25 16.65 3335.7 20.45 3313.7 26.55 3308.5 27.9 3303.35 30.25 3295.35 34.05 3288.05 39.8 3271.9 53.5 3268.65 75.5 3265.25 95.7 3283 117.15 3287.5 122.75 3293.3 127.6 3303.75 135.95 3317.85 140.25 3335.7 146.1 3355.75 142.9 3367.45 140.35 3378.75 134.8 3397.05 125.9 3412.3 111.95 3414.3 110.15 3416.3 108.35 3434.05 92.1 3460.45 85 3463.35 84 3466.2 83.15 3483.45 76.15 3487.45 65.2 3489.8 50.5 3478.45 39.65 Z"/>

<path fill="url(#Gradient_15)" stroke="none" d="
M 3736.9 66.35
Q 3739.95 51.7 3728.85 40.55 3722.25 33.4 3711.85 27.5 3695.45 18.1 3677.3 13.95 3662.55 10.85 3647.35 10.85 3628.35 10.95 3609.1 15.9 3586.65 19.65 3564.7 26.1 3559.55 27.55 3554.4 29.9 3546.4 33.8 3539.15 39.5 3522.75 53.2 3519 74.75 3515.1 94.9 3532.55 116.6 3536.95 122.3 3542.65 127.2 3552.95 135.7 3567.05 140.1 3584.9 146.2 3604.85 142.95 3616.5 140.45 3627.8 134.85 3646.05 125.9 3661.2 111.9 3663.2 110.1 3665.15 108.3 3682.7 92 3709.4 85.45 3712.35 84.55 3715.2 83.75 3732.5 77.25 3736.9 66.35 Z"/>

<path fill="url(#Gradient_16)" stroke="none" d="
M 3986.4 67.55
Q 3990.05 52.85 3979.25 41.5 3972.85 34.25 3962.45 28.25 3946.1 18.65 3928.1 14.25 3913.4 10.85 3898.25 10.6 3879.25 10.45 3860 15.15 3837.65 18.85 3815.75 25.65 3810.6 27.15 3805.5 29.55 3797.45 33.5 3790.25 39.15 3773.55 52.85 3769.3 74.05 3764.95 94.05 3782.05 116.05 3786.35 121.85 3792.05 126.8 3802.2 135.4 3816.2 140 3834.15 146.3 3854 143.05 3865.55 140.55 3876.85 134.9 3895.05 125.9 3910.1 111.85 3912.1 110.05 3914.05 108.25 3931.3 91.9 3958.35 85.9 3961.3 85.05 3964.2 84.35 3981.5 78.35 3986.4 67.55 Z"/>

<path fill="url(#Gradient_17)" stroke="none" d="
M 4229.65 42.4
Q 4223.45 35.15 4213.05 29 4196.75 19.25 4178.9 14.55 4164.25 10.9 4149.1 10.35 4130.1 9.9 4110.85 14.4 4088.6 18.05 4066.75 25.2 4061.65 26.8 4056.55 29.2 4048.5 33.25 4041.3 38.8 4024.4 52.55 4019.65 73.35 4014.8 93.2 4031.55 115.5 4035.8 121.4 4041.4 126.4 4051.45 135.15 4065.4 139.85 4083.35 146.4 4103.1 143.1 4114.6 140.65 4125.9 134.95 4144.05 125.9 4159 111.8 4161 110 4162.9 108.15 4179.95 91.8 4207.35 86.35 4210.3 85.6 4213.2 84.95 4230.5 79.5 4235.85 68.75 4240.2 54 4229.65 42.4 Z"/>

<path fill="url(#Gradient_18)" stroke="none" d="
M 4480.05 43.3
Q 4474 36.05 4463.65 29.75 4447.4 19.8 4429.7 14.85 4415.1 10.9 4400 10.15 4380.95 9.4 4361.7 13.7 4339.55 17.25 4317.8 24.75 4312.7 26.4 4307.6 28.85 4299.55 32.95 4292.4 38.45 4275.25 52.25 4269.95 72.6 4264.65 92.35 4281.05 114.95 4285.25 120.95 4290.75 126 4300.65 134.9 4314.55 139.7 4332.55 146.5 4352.2 143.15 4363.65 140.75 4374.95 135 4393 125.9 4407.9 111.75 4409.85 109.95 4411.8 108.1 4428.6 91.65 4456.3 86.75 4459.25 86.1 4462.2 85.55 4479.55 80.6 4485.35 69.95 4490.3 55.2 4480.05 43.3 Z"/>

<path fill="url(#Gradient_19)" stroke="none" d="
M 4730.45 44.25
Q 4724.6 36.9 4714.25 30.5 4698.05 20.35 4680.55 15.15 4665.95 10.95 4650.9 9.9 4631.8 8.9 4612.6 12.95 4590.55 16.45 4568.8 24.3 4563.75 26.05 4558.7 28.5 4550.6 32.7 4543.5 38.15 4526.05 51.95 4520.3 71.9 4514.5 91.55 4530.6 114.4 4534.65 120.5 4540.1 125.6 4549.9 134.6 4563.75 139.6 4581.75 146.6 4601.3 143.2 4612.7 140.85 4624 135.05 4642 125.9 4656.85 111.7 4658.75 109.9 4660.65 108.05 4677.25 91.55 4705.25 87.2 4708.25 86.65 4711.2 86.15 4728.55 81.7 4734.85 71.15 4740.45 56.35 4730.45 44.25 Z"/>

<path fill="url(#Gradient_20)" stroke="none" d="
M 4980.8 45.2
Q 4975.2 37.8 4964.85 31.25 4948.65 20.95 4931.35 15.45 4916.8 10.95 4901.75 9.65 4882.65 8.35 4863.45 12.2 4841.5 15.65 4819.85 23.85 4814.8 25.65 4809.8 28.15 4801.65 32.4 4794.55 37.8 4776.9 51.6 4770.6 71.2 4764.3 90.7 4780.1 113.85 4784.1 120.05 4789.45 125.2 4799.15 134.35 4812.9 139.45 4830.95 146.7 4850.4 143.25 4861.75 140.95 4873.05 135.1 4891 125.85 4905.75 111.65 4907.65 109.85 4909.55 107.95 4925.85 91.45 4954.25 87.65 4957.2 87.15 4960.2 86.75 4977.55 82.85 4984.3 72.3 4990.55 57.5 4980.8 45.2 Z"/>

<path fill="url(#Gradient_21)" stroke="none" d="
M 5203.2 88.1
Q 5206.15 87.65 5209.2 87.35 5226.6 83.95 5233.8 73.5 5240.65 58.7 5231.2 46.1 5225.8 38.65 5215.45 32 5199.3 21.5 5182.15 15.75 5167.6 10.95 5152.65 9.45 5133.5 7.85 5114.3 11.45 5092.45 14.85 5070.85 23.4 5065.85 25.3 5060.85 27.8 5052.7 32.1 5045.65 37.45 5027.7 51.3 5020.9 70.45 5014.15 89.85 5029.6 113.35 5033.55 119.6 5038.8 124.8 5048.35 134.1 5062.1 139.35 5080.15 146.75 5099.5 143.3 5110.8 141.05 5122.1 135.15 5140 125.85 5154.65 111.65 5156.55 109.8 5158.4 107.9 5174.5 91.35 5203.2 88.1 Z"/>

<path fill="url(#Gradient_22)" stroke="none" d="
M 5466.05 32.8
Q 5449.95 22.05 5432.95 16.05 5418.45 11 5403.55 9.2 5384.4 7.3 5365.15 10.7 5343.45 14 5321.9 22.9 5316.9 24.9 5311.95 27.45 5303.75 31.85 5296.75 37.1 5278.55 51 5271.25 69.75 5264 89 5279.1 112.8 5282.95 119.15 5288.2 124.4 5297.6 133.8 5311.25 139.2 5329.4 146.85 5348.65 143.4 5359.85 141.15 5371.15 135.2 5389 125.85 5403.55 111.6 5405.45 109.75 5407.3 107.85 5423.15 91.25 5452.15 88.55 5455.15 88.2 5458.2 88 5475.6 85.05 5483.25 74.7 5490.8 59.85 5481.6 47.05 5476.4 39.55 5466.05 32.8 Z"/>

<path fill="url(#Gradient_23)" stroke="none" d="
M 5732 47.95
Q 5726.95 40.45 5716.65 33.55 5700.6 22.6 5683.75 16.35 5669.3 11 5654.45 8.95 5635.25 6.8 5616.05 10 5594.4 13.2 5572.9 22.45 5567.95 24.55 5563 27.1 5554.8 31.55 5547.85 36.75 5529.4 50.65 5521.55 69.05 5513.85 88.15 5528.6 112.25 5532.4 118.7 5537.55 124 5546.85 133.55 5560.45 139.05 5578.6 146.95 5597.75 143.45 5608.9 141.25 5620.2 135.25 5637.95 125.85 5652.45 111.55 5654.3 109.7 5656.15 107.8 5671.75 91.1 5701.1 88.95 5704.1 88.7 5707.2 88.6 5724.6 86.15 5732.75 75.9 5740.9 61 5732 47.95 Z"/>

<path fill="url(#Gradient_24)" stroke="none" d="
M 5982.4 48.85
Q 5977.55 41.3 5967.25 34.3 5951.25 23.2 5934.55 16.65 5920.15 11.05 5905.3 8.75 5886.1 6.25 5866.9 9.25 5845.4 12.4 5823.95 22 5819 24.15 5814.05 26.75 5805.85 31.3 5798.9 36.45 5780.2 50.35 5771.9 68.3 5763.7 87.35 5778.15 111.7 5781.8 118.25 5786.9 123.6 5796.05 133.25 5809.6 138.95 5827.8 147.05 5846.85 143.5 5857.95 141.35 5869.25 135.3 5886.95 125.85 5901.35 111.5 5903.2 109.65 5905.05 107.7 5920.4 91 5950.1 89.4 5953.1 89.25 5956.2 89.2 5973.65 87.3 5982.2 77.05 5991.05 62.2 5982.4 48.85 Z"/>
</g>
</defs>

<g transform="matrix( 1, 0, 0, 1, 0,0) ">
<use xlink:href="#_______1_0_Layer0_0_FILL"/>
<animateTransform attributeName="transform" type="translate" 
values="0 0;-250 0;-500 0;-750 0;-1000 0;-1250 0;-1500 0;-1750 0;-2000 0;-2250 0;-2500 0;-2750 0;-3000 0;
-3250 0;-3500 0;-3750 0;-4000 0;-4250 0;-4500 0;-4750 0;-5000 0;-5250 0;-5500 0;-5750 0;
-5750 0;-5500 0;-5250 0;-5000 0;-4750 0;-4500 0;-4250 0;-4000 0;-3750 0;-3500 0;-3250 0;-3000 0;
-2750 0;-2500 0;-2250 0;-2000 0;-1750 0;-1500 0;-1250 0;-1000 0;-750 0;-500 0;-250 0;"
calcMode="discrete" dur="4s" repeatCount="indefinite"> 
</animateTransform>
</g>
</svg>
